<?xml version="1.0" encoding="UTF-8"?>
<svg version="1.1" xmlns="http://www.w3.org/2000/svg" width="512" height="512">
<path d="M0 0 C168.96 0 337.92 0 512 0 C512 168.96 512 337.92 512 512 C343.04 512 174.08 512 0 512 C0 343.04 0 174.08 0 0 Z " fill="#006699" transform="translate(0,0)"/>
<path d="M0 0 C100.32 0 200.64 0 304 0 C304 22.44 304 44.88 304 68 C232.72 68 161.44 68 88 68 C88 85.82 88 103.64 88 122 C155.65 122 223.3 122 293 122 C293 143.78 293 165.56 293 188 C225.35 188 157.7 188 88 188 C88 220.67 88 253.34 88 287 C58.96 287 29.92 287 0 287 C0 192.29 0 97.58 0 0 Z " fill="#FCFDFE" transform="translate(105,110)"/>
<path d="M0 0 C0.33 0 0.66 0 1 0 C1 10.56 1 21.12 1 32 C-9.56 32 -20.12 32 -31 32 C-28.77364249 30.88682125 -26.5367409 29.7921952 -24.265625 28.7734375 C-13.72981767 23.88766156 -6.72920781 17.72209058 -2 7 C-1.18112255 4.66769982 -0.56443822 2.41169056 0 0 Z " fill="#000000" transform="translate(511,480)"/>
<path d="M0 0 C2 3 2 3 3.25 6.6875 C6.4197591 15.2978904 13.2562523 22.96253211 21.37109375 27.25390625 C23.56181968 28.2287613 25.77153524 29.11615401 28 30 C29.32 30.66 30.64 31.32 32 32 C21.44 32 10.88 32 0 32 C0 21.44 0 10.88 0 0 Z " fill="#000000" transform="translate(0,480)"/>
<path d="M0 0 C10.56 0 21.12 0 32 0 C32 10.56 32 21.12 32 32 C30 29 30 29 28.75 25.3125 C25.5802409 16.7021096 18.7437477 9.03746789 10.62890625 4.74609375 C8.43818032 3.7712387 6.22846476 2.88384599 4 2 C2.68 1.34 1.36 0.68 0 0 Z " fill="#000000" transform="translate(480,0)"/>
<path d="M0 0 C10.56 0 21.12 0 32 0 C29.77364249 1.11317875 27.5367409 2.2078048 25.265625 3.2265625 C14.72981767 8.11233844 7.72920781 14.27790942 3 25 C2.18112255 27.33230018 1.56443822 29.58830944 1 32 C0.67 32 0.34 32 0 32 C0 21.44 0 10.88 0 0 Z " fill="#000000" transform="translate(0,0)"/>
</svg>
