<?xml version="1.0" encoding="UTF-8"?>
<svg version="1.1" xmlns="http://www.w3.org/2000/svg" width="250" height="550">
<path d="M0 0 C82.5 0 165 0 250 0 C250 181.5 250 363 250 550 C167.5 550 85 550 0 550 C0 368.5 0 187 0 0 Z " fill="#003398" transform="translate(0,0)"/>
<path d="M0 0 C1.27746094 0.21269531 2.55492187 0.42539062 3.87109375 0.64453125 C10.44413017 1.8155494 15.75539905 3.29889964 22.125 5.6875 C22.125 15.9175 22.125 26.1475 22.125 36.6875 C12.125 33.6875 12.125 33.6875 8.875 32.1875 C-4.58807463 26.09706148 -24.81252237 23.8106359 -38.84765625 28.69140625 C-41.9332577 30.20745321 -43.70896252 32.03235728 -45.875 34.6875 C-46.205 35.0175 -46.535 35.3475 -46.875 35.6875 C-47.30190218 40.12071493 -47.32311376 44.31328446 -45.9375 48.5625 C-39.7010546 54.98792859 -29.70268124 55.9538265 -21.3125 57.5625 C-3.88498515 61.1118367 15.26475392 65.29252351 26.125 80.6875 C33.07968991 92.15849768 33.19564153 108.35857661 30.25390625 121.21875 C27.31591736 131.57815489 21.92565669 139.69730203 12.703125 145.34375 C-12.58867666 158.52614359 -42.73141378 155.31753591 -69.1862793 147.30908203 C-79.51214867 144.05035133 -79.51214867 144.05035133 -80.875 142.6875 C-80.9633967 140.3118148 -80.99030305 137.96541326 -80.97265625 135.58984375 C-80.97053383 134.52655602 -80.97053383 134.52655602 -80.96836853 133.44178772 C-80.96275443 131.16948288 -80.95019963 128.89727525 -80.9375 126.625 C-80.93248681 125.08789204 -80.92792359 123.55078255 -80.92382812 122.01367188 C-80.91278042 118.23824358 -80.89550641 114.46288829 -80.875 110.6875 C-77.36662301 111.82393701 -73.95507107 113.01909523 -70.58984375 114.52734375 C-61.43012544 118.55700795 -52.78437086 121.99155393 -42.875 123.6875 C-41.92753906 123.86796875 -40.98007813 124.0484375 -40.00390625 124.234375 C-30.13333309 125.6638213 -19.639665 126.03222709 -10.875 120.6875 C-8.29692086 118.67899648 -6.35355784 116.64461567 -4.875 113.6875 C-4.31895721 109.1297722 -4.46806619 105.58614549 -6.375 101.375 C-13.68089413 93.52116381 -25.84110603 91.76212774 -35.95703125 89.5703125 C-50.02316121 86.49418491 -65.84626325 82.84558109 -74.55078125 70.265625 C-81.90990387 58.39267299 -84.04050592 45.2056716 -81.19140625 31.3671875 C-77.60694946 19.73629453 -70.8937522 10.45172778 -60.34375 4.18359375 C-41.29510194 -5.20066669 -20.29503688 -3.38167973 0 0 Z " fill="#FCFDFE" transform="translate(155.875,322.3125)"/>
<path d="M0 0 C2 1 2 1 2.6328125 2.84765625 C3.08854167 4.8984375 3.54427083 6.94921875 4 9 C7.3 9 10.6 9 14 9 C9.375 13.875 9.375 13.875 6 15 C6.99 18.3 7.98 21.6 9 25 C7.9275 24.319375 6.855 23.63875 5.75 22.9375 C2.98846543 21.33292485 2.98846543 21.33292485 -0.125 21.0625 C-2.50319007 22.25159503 -4.7597182 23.56870885 -7 25 C-6.67 21.7 -6.34 18.4 -6 15 C-7.155 14.195625 -8.31 13.39125 -9.5 12.5625 C-10.68653894 11.73616038 -11.8588092 10.88791631 -13 10 C-13 9.67 -13 9.34 -13 9 C-9.37 9 -5.74 9 -2 9 C-1.34 6.03 -0.68 3.06 0 0 Z " fill="#E8BE0D" transform="translate(199,197)"/>
<path d="M0 0 C2.12508244 3.18762365 2.5020163 5.26512223 3 9 C6.63 9 10.26 9 14 9 C11.74259377 11.33524782 9.7194239 13.18705073 7 15 C7.33 18.3 7.66 21.6 8 25 C7.113125 24.319375 6.22625 23.63875 5.3125 22.9375 C2.25267319 20.75892311 2.25267319 20.75892311 -0.6875 21.0625 C-3.11727595 22.0475443 -4.25581624 23.0897035 -6 25 C-6.66 25 -7.32 25 -8 25 C-7.01 21.7 -6.02 18.4 -5 15 C-6.32 14.34 -7.64 13.68 -9 13 C-10.37086915 11.70529025 -11.71340837 10.37849103 -13 9 C-9.7 9 -6.4 9 -3 9 C-2.01 6.03 -1.02 3.06 0 0 Z " fill="#E9BE0D" transform="translate(50,197)"/>
<path d="M0 0 C0.66 0.33 1.32 0.66 2 1 C2.73075648 3.3140622 3.40138258 5.64828869 4 8 C7.3 8.33 10.6 8.66 14 9 C9.25 13.875 9.25 13.875 7 15 C7.66 18.3 8.32 21.6 9 25 C6.03 23.35 3.06 21.7 0 20 C-1.98 21.65 -3.96 23.3 -6 25 C-6.66 24.67 -7.32 24.34 -8 24 C-7.34 21.03 -6.68 18.06 -6 15 C-7.155 14.195625 -8.31 13.39125 -9.5 12.5625 C-10.68653894 11.73616038 -11.8588092 10.88791631 -13 10 C-13 9.67 -13 9.34 -13 9 C-9.37 9 -5.74 9 -2 9 C-1.855625 7.88625 -1.71125 6.7725 -1.5625 5.625 C-1 2 -1 2 0 0 Z " fill="#ECC00B" transform="translate(38,154)"/>
<path d="M0 0 C2.76223278 2.76223278 2.57856291 5.20706617 3 9 C6.63 9 10.26 9 14 9 C11.74259377 11.33524782 9.7194239 13.18705073 7 15 C7.66 18.3 8.32 21.6 9 25 C5.88910379 23.44455189 2.96148509 21.80979645 0 20 C-2.64 21.65 -5.28 23.3 -8 25 C-7.34 21.7 -6.68 18.4 -6 15 C-7.155 14.195625 -8.31 13.39125 -9.5 12.5625 C-10.68653894 11.73616038 -11.8588092 10.88791631 -13 10 C-13 9.67 -13 9.34 -13 9 C-9.7 8.67 -6.4 8.34 -3 8 C-2.01 5.36 -1.02 2.72 0 0 Z " fill="#EDC10A" transform="translate(211,154)"/>
<path d="M0 0 C2.12508244 3.18762365 2.5020163 5.26512223 3 9 C6.3 9 9.6 9 13 9 C11.7934375 10.11375 11.7934375 10.11375 10.5625 11.25 C7.63196797 14.21175858 7.63196797 14.21175858 7 18 C7.588562 20.354248 8.24592899 22.69342986 9 25 C6.50638429 23.79618552 4.31856917 22.54571278 2 21 C-1.97617113 21.31390825 -4.70155506 22.83245047 -8 25 C-7.34 21.7 -6.68 18.4 -6 15 C-7.155 14.195625 -8.31 13.39125 -9.5 12.5625 C-10.68653894 11.73616038 -11.8588092 10.88791631 -13 10 C-13 9.67 -13 9.34 -13 9 C-9.7 9 -6.4 9 -3 9 C-2.01 6.03 -1.02 3.06 0 0 Z " fill="#EEC209" transform="translate(168,229)"/>
<path d="M0 0 C2.12508244 3.18762365 2.5020163 5.26512223 3 9 C6.3 9 9.6 9 13 9 C11.7934375 10.11375 11.7934375 10.11375 10.5625 11.25 C7.67094846 14.22150478 7.67094846 14.22150478 7 18 C7.27313343 20.34114367 7.59802999 22.67750658 8 25 C7.113125 24.319375 6.22625 23.63875 5.3125 22.9375 C2.2706339 20.76871359 2.2706339 20.76871359 -0.5625 21.0625 C-3.26507997 22.10195384 -5.58272882 23.41150751 -8 25 C-7.34 21.7 -6.68 18.4 -6 15 C-7.155 14.195625 -8.31 13.39125 -9.5 12.5625 C-10.68653894 11.73616038 -11.8588092 10.88791631 -13 10 C-13 9.67 -13 9.34 -13 9 C-9.7 9 -6.4 9 -3 9 C-2.01 6.03 -1.02 3.06 0 0 Z " fill="#ECC00B" transform="translate(168,79)"/>
<path d="M0 0 C2 1 2 1 2.6328125 2.84765625 C3.08854167 4.8984375 3.54427083 6.94921875 4 9 C7.3 9 10.6 9 14 9 C9.25 13.875 9.25 13.875 7 15 C7.66 18.3 8.32 21.6 9 25 C8.113125 24.319375 7.22625 23.63875 6.3125 22.9375 C3.2706339 20.76871359 3.2706339 20.76871359 0.4375 21.0625 C-2.26507997 22.10195384 -4.58272882 23.41150751 -7 25 C-6.85820313 24.33613281 -6.71640625 23.67226562 -6.5703125 22.98828125 C-6.1108952 20.22774745 -5.80761397 17.7960103 -6 15 C-7.74783613 12.60143103 -9.44069426 11.61915261 -12 10 C-12 9.67 -12 9.34 -12 9 C-8.7 9 -5.4 9 -2 9 C-1.34 6.03 -0.68 3.06 0 0 Z " fill="#EDC10A" transform="translate(81,79)"/>
<path d="M0 0 C2 1 2 1 2.6328125 2.84765625 C3.08854167 4.8984375 3.54427083 6.94921875 4 9 C7.3 9 10.6 9 14 9 C11.66666667 11.33333333 9.33333333 13.66666667 7 16 C7.19890456 18.23344065 7.19890456 18.23344065 7.875 20.625 C8.07867187 21.44226563 8.28234375 22.25953125 8.4921875 23.1015625 C8.65976563 23.72804687 8.82734375 24.35453125 9 25 C6.69 23.35 4.38 21.7 2 20 C-0.95409701 21.37154504 -3.44008376 22.98863724 -6 25 C-6.66 24.67 -7.32 24.34 -8 24 C-7.01 20.7 -6.02 17.4 -5 14 C-5.78375 13.731875 -6.5675 13.46375 -7.375 13.1875 C-10 12 -10 12 -12 9 C-8.7 9 -5.4 9 -2 9 C-1.34 6.03 -0.68 3.06 0 0 Z " fill="#EFC309" transform="translate(81,229)"/>
<path d="M0 0 C2 1 2 1 2.6328125 2.84765625 C3.08854167 4.8984375 3.54427083 6.94921875 4 9 C7.3 9 10.6 9 14 9 C10 13 10 13 8.3125 14.34375 C6.74294236 15.94454689 6.74294236 15.94454689 7.14453125 18.26171875 C7.36496094 19.06222656 7.58539063 19.86273438 7.8125 20.6875 C8.13154297 21.89986328 8.13154297 21.89986328 8.45703125 23.13671875 C8.72580078 24.05904297 8.72580078 24.05904297 9 25 C8.55269531 24.61585938 8.10539062 24.23171875 7.64453125 23.8359375 C5.81143918 22.37415406 4.07464739 21.09555184 2 20 C-1.60843853 20.65607973 -3.63005465 22.25585275 -6 25 C-6.66 24.67 -7.32 24.34 -8 24 C-7.01 20.7 -6.02 17.4 -5 14 C-6.32 13.34 -7.64 12.68 -9 12 C-9.99 11.01 -10.98 10.02 -12 9 C-8.7 9 -5.4 9 -2 9 C-1.34 6.03 -0.68 3.06 0 0 Z " fill="#F1C308" transform="translate(199,111)"/>
<path d="M0 0 C2.76223278 2.76223278 2.57856291 5.20706617 3 9 C6.3 9 9.6 9 13 9 C11.37660195 10.70884005 9.70680947 12.37446717 8 14 C7.34 14 6.68 14 6 14 C6.99 17.63 7.98 21.26 9 25 C5.95048605 23.47524303 3.63600494 22.07114674 1 20 C-2.11198065 21.49836105 -5.0534615 23.19933758 -8 25 C-7.34 21.7 -6.68 18.4 -6 15 C-7.155 14.195625 -8.31 13.39125 -9.5 12.5625 C-10.68653894 11.73616038 -11.8588092 10.88791631 -13 10 C-13 9.67 -13 9.34 -13 9 C-9.7 9 -6.4 9 -3 9 C-2.01 6.03 -1.02 3.06 0 0 Z " fill="#F1C407" transform="translate(50,111)"/>
<path d="M0 0 C0.66 0 1.32 0 2 0 C2.66 2.97 3.32 5.94 4 9 C7.3 9 10.6 9 14 9 C10.25 12.875 10.25 12.875 8 14 C8.33 17.3 8.66 20.6 9 24 C7.948125 23.29875 6.89625 22.5975 5.8125 21.875 C2.78188284 20.09533142 2.78188284 20.09533142 -0.6875 20.625 C-1.8321875 21.305625 -1.8321875 21.305625 -3 22 C-4.98 22.99 -4.98 22.99 -7 24 C-6.67 20.7 -6.34 17.4 -6 14 C-6.99 13.360625 -7.98 12.72125 -9 12.0625 C-9.99 11.381875 -10.98 10.70125 -12 10 C-12 9.67 -12 9.34 -12 9 C-8.7 9 -5.4 9 -2 9 C-1.34 6.03 -0.68 3.06 0 0 Z " fill="#F1C308" transform="translate(124,241)"/>
<path d="M0 0 C0.66 0 1.32 0 2 0 C2.66 2.97 3.32 5.94 4 9 C7.3 9 10.6 9 14 9 C10.25 12.875 10.25 12.875 8 14 C8.33 17.3 8.66 20.6 9 24 C7.948125 23.29875 6.89625 22.5975 5.8125 21.875 C2.78188284 20.09533142 2.78188284 20.09533142 -0.6875 20.625 C-1.8321875 21.305625 -1.8321875 21.305625 -3 22 C-4.98 22.99 -4.98 22.99 -7 24 C-6.67 20.7 -6.34 17.4 -6 14 C-6.99 13.360625 -7.98 12.72125 -9 12.0625 C-9.99 11.381875 -10.98 10.70125 -12 10 C-12 9.67 -12 9.34 -12 9 C-8.7 9 -5.4 9 -2 9 C-1.34 6.03 -0.68 3.06 0 0 Z " fill="#F1C407" transform="translate(124,68)"/>
</svg>
